<svg xmlns="http://www.w3.org/2000/svg" width="9" height="12" viewBox="0 0 9 12"><g transform="translate(-1560.501 -3587)"><g transform="translate(1237.002 5270) rotate(-90)"><path d="M-2457.441-3428.189a.6.6,0,0,1,0-.909l3.03-2.76h-8.884a.677.677,0,0,1-.706-.644.677.677,0,0,1,.706-.643h8.884l-3.03-2.759a.6.6,0,0,1,0-.909.755.755,0,0,1,1,0l4.235,3.857a.6.6,0,0,1,0,.909l-4.235,3.856a.742.742,0,0,1-.5.189A.741.741,0,0,1-2457.441-3428.189Z" transform="translate(4135.001 3760.5)" fill="#ffc15d"/></g></g></svg>